<mxfile host="app.diagrams.net" agent="Mozilla/5.0 (X11; Linux x86_64) AppleWebKit/537.36 (KHTML, like Gecko) Chrome/131.0.0.0 Safari/537.36" version="25.0.1">
  <diagram name="Page-1" id="5ebmujxX_aiCCtLU338d">
    <mxGraphModel dx="1114" dy="640" grid="1" gridSize="10" guides="1" tooltips="1" connect="1" arrows="1" fold="1" page="1" pageScale="1" pageWidth="500" pageHeight="900" math="0" shadow="0">
      <root>
        <mxCell id="0" />
        <mxCell id="1" parent="0" />
        <mxCell id="maAZ2F-J_-bz92qixcwE-1" value="" style="rounded=1;whiteSpace=wrap;html=1;" vertex="1" parent="1">
          <mxGeometry x="118.5" y="360" width="160" height="110" as="geometry" />
        </mxCell>
        <mxCell id="maAZ2F-J_-bz92qixcwE-2" style="edgeStyle=orthogonalEdgeStyle;rounded=0;orthogonalLoop=1;jettySize=auto;html=1;exitX=0.5;exitY=1;exitDx=0;exitDy=0;" edge="1" parent="1" source="maAZ2F-J_-bz92qixcwE-17" target="maAZ2F-J_-bz92qixcwE-23">
          <mxGeometry relative="1" as="geometry">
            <mxPoint x="198.5" y="520" as="targetPoint" />
          </mxGeometry>
        </mxCell>
        <mxCell id="maAZ2F-J_-bz92qixcwE-3" value="Screening&lt;font size=&quot;1&quot;&gt;&lt;sup&gt;6,7&lt;/sup&gt;&lt;/font&gt;" style="edgeLabel;html=1;align=center;verticalAlign=middle;resizable=0;points=[];labelBackgroundColor=default;labelBorderColor=default;" vertex="1" connectable="0" parent="maAZ2F-J_-bz92qixcwE-2">
          <mxGeometry x="0.0857" relative="1" as="geometry">
            <mxPoint as="offset" />
          </mxGeometry>
        </mxCell>
        <mxCell id="maAZ2F-J_-bz92qixcwE-4" value="" style="rounded=1;whiteSpace=wrap;html=1;" vertex="1" parent="1">
          <mxGeometry x="138.5" y="180" width="120" height="60" as="geometry" />
        </mxCell>
        <mxCell id="maAZ2F-J_-bz92qixcwE-5" style="edgeStyle=orthogonalEdgeStyle;rounded=1;orthogonalLoop=1;jettySize=auto;html=1;exitX=0.5;exitY=1;exitDx=0;exitDy=0;entryX=0.5;entryY=0;entryDx=0;entryDy=0;curved=0;" edge="1" parent="1" source="maAZ2F-J_-bz92qixcwE-9" target="maAZ2F-J_-bz92qixcwE-4">
          <mxGeometry relative="1" as="geometry">
            <Array as="points">
              <mxPoint x="198.5" y="120" />
            </Array>
          </mxGeometry>
        </mxCell>
        <mxCell id="maAZ2F-J_-bz92qixcwE-6" value="99.6%&lt;sup&gt;3&lt;/sup&gt;" style="edgeLabel;html=1;align=center;verticalAlign=bottom;resizable=0;points=[];labelBorderColor=default;" vertex="1" connectable="0" parent="maAZ2F-J_-bz92qixcwE-5">
          <mxGeometry x="0.1182" relative="1" as="geometry">
            <mxPoint as="offset" />
          </mxGeometry>
        </mxCell>
        <mxCell id="maAZ2F-J_-bz92qixcwE-7" style="edgeStyle=orthogonalEdgeStyle;rounded=0;orthogonalLoop=1;jettySize=auto;html=1;exitX=1;exitY=0.5;exitDx=0;exitDy=0;entryX=1;entryY=0.5;entryDx=0;entryDy=0;curved=0;" edge="1" parent="1" source="maAZ2F-J_-bz92qixcwE-9" target="maAZ2F-J_-bz92qixcwE-1">
          <mxGeometry relative="1" as="geometry">
            <mxPoint x="359.5" y="450" as="targetPoint" />
            <Array as="points">
              <mxPoint x="318.5" y="70" />
              <mxPoint x="318.5" y="415" />
            </Array>
          </mxGeometry>
        </mxCell>
        <mxCell id="maAZ2F-J_-bz92qixcwE-8" value="0.4%&lt;sup&gt;3&lt;/sup&gt;" style="edgeLabel;html=1;align=center;verticalAlign=middle;resizable=0;points=[];labelBorderColor=default;" vertex="1" connectable="0" parent="maAZ2F-J_-bz92qixcwE-7">
          <mxGeometry x="-0.7223" y="-1" relative="1" as="geometry">
            <mxPoint x="8" y="71" as="offset" />
          </mxGeometry>
        </mxCell>
        <mxCell id="maAZ2F-J_-bz92qixcwE-9" value="Renal level" style="rhombus;whiteSpace=wrap;html=1;rounded=0;" vertex="1" parent="1">
          <mxGeometry x="148.5" y="20" width="100" height="100" as="geometry" />
        </mxCell>
        <mxCell id="maAZ2F-J_-bz92qixcwE-10" style="edgeStyle=orthogonalEdgeStyle;rounded=0;orthogonalLoop=1;jettySize=auto;html=1;exitX=0.133;exitY=1.033;exitDx=0;exitDy=0;entryX=0.125;entryY=0;entryDx=0;entryDy=0;entryPerimeter=0;exitPerimeter=0;" edge="1" parent="1" source="maAZ2F-J_-bz92qixcwE-4" target="maAZ2F-J_-bz92qixcwE-17">
          <mxGeometry relative="1" as="geometry">
            <mxPoint x="188.5" y="270" as="sourcePoint" />
            <mxPoint x="128.5" y="380" as="targetPoint" />
          </mxGeometry>
        </mxCell>
        <mxCell id="maAZ2F-J_-bz92qixcwE-11" value="On prep:&lt;div&gt;&lt;span style=&quot;font-size: 12px; text-wrap: wrap;&quot;&gt;Age Dependant Renal&lt;/span&gt;&lt;div style=&quot;font-size: 12px; text-wrap: wrap;&quot;&gt;Decline&lt;sup&gt;3&lt;/sup&gt;&lt;/div&gt;&lt;/div&gt;" style="edgeLabel;html=1;align=center;verticalAlign=middle;resizable=0;points=[];labelBorderColor=default;labelPosition=center;verticalLabelPosition=middle;" vertex="1" connectable="0" parent="maAZ2F-J_-bz92qixcwE-10">
          <mxGeometry x="-0.1417" y="2" relative="1" as="geometry">
            <mxPoint x="2" y="-10" as="offset" />
          </mxGeometry>
        </mxCell>
        <mxCell id="maAZ2F-J_-bz92qixcwE-12" style="edgeStyle=orthogonalEdgeStyle;rounded=0;orthogonalLoop=1;jettySize=auto;html=1;exitX=0.858;exitY=1;exitDx=0;exitDy=0;entryX=0.75;entryY=0;entryDx=0;entryDy=0;exitPerimeter=0;" edge="1" parent="1" source="maAZ2F-J_-bz92qixcwE-4" target="maAZ2F-J_-bz92qixcwE-1">
          <mxGeometry relative="1" as="geometry">
            <mxPoint x="248.5" y="300" as="sourcePoint" />
            <mxPoint x="298.5" y="310" as="targetPoint" />
          </mxGeometry>
        </mxCell>
        <mxCell id="maAZ2F-J_-bz92qixcwE-13" value="Not on Prep:&lt;div&gt;&lt;span style=&quot;font-size: 12px; text-wrap: wrap;&quot;&gt;Natural Renal&lt;/span&gt;&lt;div style=&quot;text-wrap: wrap;&quot;&gt;&lt;span style=&quot;font-size: 12px;&quot;&gt;Decline&lt;/span&gt;&lt;span style=&quot;font-size: 10px;&quot;&gt;&lt;sup&gt;8&lt;/sup&gt;&lt;/span&gt;&lt;/div&gt;&lt;/div&gt;" style="edgeLabel;html=1;align=center;verticalAlign=middle;resizable=0;points=[];labelBorderColor=default;labelPosition=center;verticalLabelPosition=middle;" vertex="1" connectable="0" parent="maAZ2F-J_-bz92qixcwE-12">
          <mxGeometry x="-0.214" relative="1" as="geometry">
            <mxPoint x="-3" y="12" as="offset" />
          </mxGeometry>
        </mxCell>
        <mxCell id="maAZ2F-J_-bz92qixcwE-14" value="Renal level&amp;nbsp;&lt;div&gt;&amp;gt;60&lt;/div&gt;" style="text;html=1;align=center;verticalAlign=middle;resizable=0;points=[];autosize=1;strokeColor=none;fillColor=none;" vertex="1" parent="1">
          <mxGeometry x="153.5" y="190" width="90" height="40" as="geometry" />
        </mxCell>
        <mxCell id="maAZ2F-J_-bz92qixcwE-15" style="edgeStyle=orthogonalEdgeStyle;rounded=0;orthogonalLoop=1;jettySize=auto;html=1;exitX=0;exitY=0.5;exitDx=0;exitDy=0;entryX=0.75;entryY=1;entryDx=0;entryDy=0;" edge="1" parent="1" source="maAZ2F-J_-bz92qixcwE-17" target="maAZ2F-J_-bz92qixcwE-20">
          <mxGeometry relative="1" as="geometry" />
        </mxCell>
        <mxCell id="maAZ2F-J_-bz92qixcwE-16" value="Self&lt;div&gt;halt&lt;br&gt;&lt;/div&gt;" style="edgeLabel;html=1;align=center;verticalAlign=middle;resizable=0;points=[];" vertex="1" connectable="0" parent="maAZ2F-J_-bz92qixcwE-15">
          <mxGeometry x="0.2699" relative="1" as="geometry">
            <mxPoint as="offset" />
          </mxGeometry>
        </mxCell>
        <mxCell id="maAZ2F-J_-bz92qixcwE-17" value="prep induced" style="rounded=1;whiteSpace=wrap;html=1;" vertex="1" parent="1">
          <mxGeometry x="138.5" y="400" width="120" height="60" as="geometry" />
        </mxCell>
        <mxCell id="maAZ2F-J_-bz92qixcwE-18" value="Renal Level&lt;div&gt;&amp;lt;60&lt;/div&gt;" style="text;html=1;align=center;verticalAlign=middle;resizable=0;points=[];autosize=1;strokeColor=none;fillColor=none;" vertex="1" parent="1">
          <mxGeometry x="153.5" y="360" width="90" height="40" as="geometry" />
        </mxCell>
        <mxCell id="maAZ2F-J_-bz92qixcwE-19" style="edgeStyle=orthogonalEdgeStyle;rounded=0;orthogonalLoop=1;jettySize=auto;html=1;exitX=0.5;exitY=0;exitDx=0;exitDy=0;entryX=0;entryY=0.5;entryDx=0;entryDy=0;" edge="1" parent="1" source="maAZ2F-J_-bz92qixcwE-20" target="maAZ2F-J_-bz92qixcwE-4">
          <mxGeometry relative="1" as="geometry" />
        </mxCell>
        <mxCell id="maAZ2F-J_-bz92qixcwE-20" value="&lt;span style=&quot;font-size: 11px; text-wrap: nowrap;&quot;&gt;Off Prep:&lt;/span&gt;&lt;div style=&quot;font-size: 11px; text-wrap: nowrap; padding-right: 0px; padding-left: 0px;&quot;&gt;Renal recovey&lt;sup&gt;5,6&lt;/sup&gt;&lt;/div&gt;" style="rounded=0;whiteSpace=wrap;html=1;strokeColor=default;perimeterSpacing=0;strokeWidth=1;" vertex="1" parent="1">
          <mxGeometry x="20" y="270" width="98.5" height="30" as="geometry" />
        </mxCell>
        <mxCell id="maAZ2F-J_-bz92qixcwE-21" style="edgeStyle=orthogonalEdgeStyle;rounded=0;orthogonalLoop=1;jettySize=auto;html=1;exitX=0;exitY=0.5;exitDx=0;exitDy=0;entryX=0.25;entryY=1;entryDx=0;entryDy=0;" edge="1" parent="1" source="maAZ2F-J_-bz92qixcwE-23" target="maAZ2F-J_-bz92qixcwE-20">
          <mxGeometry relative="1" as="geometry" />
        </mxCell>
        <mxCell id="maAZ2F-J_-bz92qixcwE-22" value="Guided&lt;div&gt;halt&lt;/div&gt;" style="edgeLabel;html=1;align=center;verticalAlign=middle;resizable=0;points=[];" vertex="1" connectable="0" parent="maAZ2F-J_-bz92qixcwE-21">
          <mxGeometry x="0.0241" y="-1" relative="1" as="geometry">
            <mxPoint as="offset" />
          </mxGeometry>
        </mxCell>
        <mxCell id="maAZ2F-J_-bz92qixcwE-23" value="&lt;div&gt;Renal level&amp;nbsp;&lt;/div&gt;&lt;div&gt;Measured&lt;/div&gt;" style="rounded=1;whiteSpace=wrap;html=1;" vertex="1" parent="1">
          <mxGeometry x="138.5" y="530" width="120" height="60" as="geometry" />
        </mxCell>
      </root>
    </mxGraphModel>
  </diagram>
</mxfile>
